<svg width="706" height="519" viewBox="0 0 706 519" fill="none" xmlns="http://www.w3.org/2000/svg">
<g clip-path="url(#clip0)">
<g opacity="0.5">
<path opacity="0.5" d="M497.527 130.751C493.962 131.779 489.535 134.435 487.368 141.723C483.091 156.001 492.986 165.766 489.742 180.593C488.855 184.535 487.156 188.248 484.752 191.494C480.781 196.884 476.461 199.439 472.283 203.216C466.973 208.039 463.168 214.296 461.326 221.233C459.307 228.891 459.138 236.92 460.834 244.655C462.324 251.123 464.862 255.827 467.072 261.074C469.823 267.769 471.971 274.698 473.488 281.776C474.331 285.217 474.809 288.736 474.914 292.277C474.985 296.725 474.293 301.557 473.616 306.326L467.578 348.522C466.772 354.141 465.96 359.851 465.931 365.198C465.888 371.373 466.879 376.677 467.863 381.853C470.002 393.018 472.262 404.604 477.131 410.493C482 416.382 490.255 414.341 495.338 402.319C500.172 390.897 500.271 375.621 504.535 363.399C511.25 344.125 524.61 341.555 532.017 323.187C539.146 305.569 536.95 283.925 540.572 263.851C543.152 249.452 548.649 236.317 551.907 222.09C556.591 201.595 556.127 180.322 552.384 164.574C548.642 148.826 541.926 138.011 534.512 129.809C531.368 126.332 528.01 123.241 524.061 122.934C519.862 122.613 516.219 127.932 512.049 129.495C507.215 131.301 502.396 129.366 497.527 130.751Z" fill="#5598E1"/>
<path opacity="0.5" d="M520.261 123.934C520.261 123.934 513.132 306.169 483.24 413.634" stroke="#535461" stroke-width="2" stroke-miterlimit="10"/>
<path opacity="0.5" d="M487.183 142.616C487.183 142.616 519.106 171.748 513.082 227.258" stroke="#535461" stroke-width="2" stroke-miterlimit="10"/>
<path opacity="0.5" d="M460.363 225.509C460.363 225.509 512.833 236.075 508.94 267.499" stroke="#535461" stroke-width="2" stroke-miterlimit="10"/>
<path opacity="0.5" d="M552.449 164.139C552.449 164.139 531.226 182.749 512.306 235.461" stroke="#535461" stroke-width="2" stroke-miterlimit="10"/>
<path opacity="0.5" d="M531.697 323.451C531.697 323.451 517.21 334.873 505.583 295.033" stroke="#535461" stroke-width="2" stroke-miterlimit="10"/>
<path opacity="0.5" d="M469.203 346.688C469.203 346.688 498.746 342.826 501.469 324.294" stroke="#535461" stroke-width="2" stroke-miterlimit="10"/>
</g>
<path d="M568.938 8.52362C561.623 9.60869 552.826 12.9995 549.212 23.4719C542.118 44.0026 563.691 59.5434 558.722 80.995C557.232 87.4198 553.561 92.6453 549.689 96.4573C542.104 103.924 533.471 107.165 525.273 112.234C517.074 117.302 508.562 125.255 504.72 137.469C501.02 149.219 502.624 162.204 506.466 171.906C510.309 181.607 516.126 188.838 521.323 196.819C527.652 206.645 532.944 217.102 537.114 228.022C538.975 232.827 540.678 237.895 541.284 243.649C541.954 250.209 541.106 257.269 540.265 264.179L532.765 325.572C531.767 333.745 530.762 342.062 531.339 349.936C531.988 359.023 534.669 366.947 537.313 374.685C543.017 391.376 549.119 408.715 559.863 417.96C570.606 427.204 587.487 425.184 596.57 408.08C605.217 391.797 603.628 369.346 610.999 351.856C622.619 324.294 649.959 322.067 663.112 295.904C675.738 270.804 668.673 238.695 673.742 209.526C677.377 188.624 687.208 169.942 692.277 149.376C699.549 119.744 696.077 88.3692 686.452 64.7332C676.828 41.0972 661.658 24.3714 645.347 11.4148C638.431 5.92516 631.089 0.963807 622.904 0.0500623C614.179 -0.920792 607.221 6.432 598.816 8.2809C589.049 10.4725 578.854 7.05306 568.938 8.52362Z" fill="#B5D7FF"/>
<path d="M615.176 1.17072C615.176 1.17072 622.056 268.698 572.858 423.399" stroke="#535461" stroke-width="2" stroke-miterlimit="10"/>
<path d="M548.927 24.7568C548.927 24.7568 618.52 71.4577 612.56 152.481" stroke="#535461" stroke-width="2" stroke-miterlimit="10"/>
<path d="M503.244 143.651C503.244 143.651 613.088 165.438 608.753 211.246" stroke="#535461" stroke-width="2" stroke-miterlimit="10"/>
<path d="M686.551 64.2048C686.551 64.2048 644.804 89.0901 611.918 164.467" stroke="#535461" stroke-width="2" stroke-miterlimit="10"/>
<path d="M662.47 296.346C662.47 296.346 633.84 311.437 605.061 251.373" stroke="#535461" stroke-width="2" stroke-miterlimit="10"/>
<path d="M535.838 323.152C535.838 323.152 596.527 320.967 599.999 294.012" stroke="#535461" stroke-width="2" stroke-miterlimit="10"/>
<path opacity="0.1" d="M348.045 446.728C516.43 446.728 652.932 433.599 652.932 417.403C652.932 401.207 516.43 388.078 348.045 388.078C179.661 388.078 43.1592 401.207 43.1592 417.403C43.1592 433.599 179.661 446.728 348.045 446.728Z" fill="#6C63FF"/>
<path d="M59.0498 392.468C59.0498 395.223 58.7433 397.465 58.3369 397.465C57.9306 397.465 57.624 395.23 57.624 392.468C57.624 389.705 58.009 391.04 58.3868 391.04C58.7647 391.04 59.0498 389.712 59.0498 392.468Z" fill="#FFD037"/>
<path d="M62.8493 395.751C60.4326 397.072 58.3295 397.893 58.1513 397.529C57.9731 397.165 59.7767 395.851 62.1935 394.538C64.6102 393.224 63.6549 394.181 63.8403 394.538C64.0256 394.895 65.2732 394.424 62.8493 395.751Z" fill="#FFD037"/>
<path d="M5.28271 392.468C5.28271 395.223 5.58926 397.465 5.99562 397.465C6.40197 397.465 6.70852 395.23 6.70852 392.468C6.70852 389.705 6.32355 391.04 5.94571 391.04C5.56788 391.04 5.28271 389.712 5.28271 392.468Z" fill="#FFD037"/>
<path d="M1.46855 395.751C3.88528 397.072 5.98834 397.893 6.16656 397.529C6.34479 397.165 4.54115 395.851 2.12442 394.538C-0.292318 393.224 0.662971 394.181 0.477616 394.538C0.292262 394.895 -0.948186 394.424 1.46855 395.751Z" fill="#FFD037"/>
<path d="M224.585 321.917C224.585 321.917 308.173 268.441 365.96 268.441C365.96 268.441 435.532 257.59 511.207 275.93C586.881 294.269 614.834 318.048 635.815 311.066L547.672 313.65L224.585 321.917Z" fill="#D9F2FF"/>
<path opacity="0.1" d="M224.585 321.917C224.585 321.917 308.173 268.441 365.96 268.441C365.96 268.441 435.532 257.59 511.207 275.93C586.881 294.269 614.834 318.048 635.815 311.066L547.672 313.65L224.585 321.917Z" fill="#D9F2FF"/>
<path d="M618.57 403.761H108.789L122.804 347.53L209.493 324.451L618.57 335.216V403.761Z" fill="#2A324E"/>
<path d="M645.403 368.625V386.571C645.403 386.571 630.268 397.565 628.892 406.174C628.892 406.174 607.22 411.685 601.032 411.685C600.469 411.685 599.856 411.685 599.214 411.749C600.181 409.152 600.937 406.48 601.474 403.761C602.992 396.13 602.801 388.258 600.915 380.71C599.028 373.162 595.493 366.127 590.565 360.112C585.636 354.097 579.437 349.251 572.413 345.924C565.389 342.597 557.716 340.871 549.946 340.871C542.176 340.871 534.502 342.597 527.479 345.924C520.455 349.251 514.255 354.097 509.327 360.112C504.398 366.127 500.863 373.162 498.977 380.71C497.091 388.258 496.899 396.13 498.417 403.761C499.147 407.44 500.268 411.029 501.761 414.469H472.375C472.375 414.469 472.104 414.562 471.662 414.755C470.087 415.468 466.372 417.353 465.838 420.316H222.304L217.313 420.273C218.374 418.49 219.326 416.645 220.165 414.747C221.73 411.233 222.892 407.552 223.63 403.775C225.079 396.563 225.003 389.127 223.407 381.947C221.811 374.766 218.73 367.999 214.363 362.084C209.995 356.169 204.438 351.235 198.05 347.602C191.662 343.969 184.585 341.716 177.274 340.989C169.963 340.263 162.582 341.078 155.605 343.383C148.628 345.688 142.211 349.431 136.768 354.371C131.324 359.311 126.975 365.339 124 372.065C121.025 378.792 119.491 386.068 119.496 393.424C119.496 396.892 119.835 400.352 120.509 403.754C121.657 409.514 123.764 415.04 126.739 420.101C123.26 419.252 115.668 416.839 115.668 416.839C115.668 416.839 83.3379 413.398 75.0825 406.131L76.3301 405.267L81.6198 401.648L79.2102 392.368C78.9194 391.976 78.6798 391.549 78.4973 391.097C77.8557 389.548 77.2925 386.671 79.5595 383.059C82.9957 377.548 81.2776 357.917 81.2776 357.917C81.2776 357.917 128.058 325.543 220.243 318.304C220.243 318.304 222.446 320.018 226.995 320.375C230.074 320.625 234.231 320.246 239.513 318.304C239.513 318.304 247.077 321.745 279.436 303.149C279.436 303.149 334.479 265.257 406.717 268.712C406.717 268.712 481.015 264.229 544.307 288.701C571.582 299.237 592.335 304.855 607.128 307.825C620.787 310.573 629.363 311.08 633.291 311.123H633.377C634.66 311.123 635.423 311.123 635.694 311.123H635.808C635.808 311.123 635.808 319.325 636.242 329.012V329.062C636.399 332.432 636.613 335.98 636.913 339.428V339.642C637.74 349.243 639.165 357.967 641.639 359.694L645.403 368.625Z" fill="#6082FF"/>
<path d="M88.7133 357.131C88.7133 357.131 109.437 340.941 135.237 344.389C135.237 344.389 111.761 362.992 101.182 361.786L99.3783 360.237L88.6848 360.836C88.6848 360.836 87.0879 358.338 88.7133 357.131Z" fill="#D9F2FF"/>
<path opacity="0.2" d="M108.832 385.143V394.702C108.832 394.702 108.119 403.832 99.8846 404.175L76.3589 405.339L81.6415 401.719L79.2319 392.439C78.9397 392.051 78.7 391.626 78.519 391.176C80.6577 389.205 85.6979 385.879 95.9494 385.165L108.832 385.143Z" fill="white"/>
<path opacity="0.2" d="M218.305 345.082L236.362 344.368C236.362 344.368 229.055 350.136 223.894 350.657C218.732 351.178 218.305 345.082 218.305 345.082Z" fill="white"/>
<path opacity="0.2" d="M256.316 399.935C256.316 399.935 419.621 377.198 459.094 384.43C459.094 384.43 470.7 385.208 475.091 389.855C479.483 394.502 475.091 391.49 475.091 391.49L256.316 399.935Z" fill="white"/>
<path opacity="0.5" d="M347.731 336.123C347.731 336.123 349.799 332.246 353.15 332.161L374.907 331.04C374.907 331.04 374.565 334.052 370.694 335.173L347.731 336.123Z" fill="#06060A"/>
<path opacity="0.5" d="M473.63 329.576C473.63 329.576 475.697 325.7 479.048 325.614L500.806 324.465C500.806 324.465 500.463 327.478 496.592 328.598L473.63 329.576Z" fill="#06060A"/>
<path d="M399.339 276.465L382.643 320.31L322.445 320.375H306.947H293.466H281.81H268.607C268.607 320.375 276.648 314.464 289.602 306.933C293.879 304.434 298.734 301.764 304.002 299.08C308.85 296.596 314.069 294.083 319.551 291.699C323.828 289.814 328.334 288.001 332.939 286.309C353.82 278.664 377.289 273.531 399.339 276.465Z" fill="#D9F2FF"/>
<path d="M493.926 308.482C493.926 308.482 468.775 312.215 444.772 314.978C435.597 316.034 426.593 316.948 419.221 317.455L418.195 317.526C415.343 317.712 412.698 317.833 410.453 317.876C406.888 317.94 404.222 317.783 402.889 317.355L409.825 275.416C409.825 275.416 418.38 275.508 431.034 276.129L433.8 276.279C436.431 276.429 439.204 276.601 442.098 276.801C446.233 277.086 450.589 277.429 455.08 277.843C476.767 279.834 501.333 283.411 516.889 289.85C549.989 303.57 493.926 308.482 493.926 308.482Z" fill="#D9F2FF"/>
<path d="M609.844 329.576V340.77C609.844 340.77 591.786 341.027 595.657 337.415C598.163 335.016 600.437 332.387 602.451 329.562L609.844 329.576Z" fill="#D9F2FF"/>
<path d="M636.899 339.628L622.234 340.777V327.321C622.234 327.321 629.028 317.762 635.822 328.356L636.214 328.977L636.899 339.628Z" fill="#D9F2FF"/>
<path d="M172.087 435.449C195.266 435.449 214.056 416.634 214.056 393.424C214.056 370.214 195.266 351.399 172.087 351.399C148.909 351.399 130.119 370.214 130.119 393.424C130.119 416.634 148.909 435.449 172.087 435.449Z" fill="#45495F"/>
<path d="M205.75 393.389C205.766 402.06 202.454 410.407 196.5 416.704C190.545 423 182.403 426.766 173.755 427.224C165.107 427.681 156.614 424.795 150.03 419.162C143.446 413.528 139.275 405.577 138.378 396.952C137.48 388.327 139.926 379.686 145.209 372.815C150.492 365.944 158.208 361.367 166.765 360.03C175.321 358.693 184.064 360.697 191.187 365.63C198.309 370.563 203.268 378.047 205.037 386.536C205.507 388.79 205.746 391.086 205.75 393.389Z" fill="#CCE1FF"/>
<path opacity="0.5" d="M172.037 422.428C188.019 422.428 200.974 409.424 200.974 393.381C200.974 377.339 188.019 364.334 172.037 364.334C156.056 364.334 143.101 377.339 143.101 393.381C143.101 409.424 156.056 422.428 172.037 422.428Z" fill="#06060A"/>
<path d="M181.718 360.958V362.186L172.087 394.117L164.359 360.43C170.093 359.091 176.076 359.273 181.718 360.958Z" fill="#CCE1FF"/>
<path d="M181.647 425.834C176.131 427.47 170.289 427.671 164.673 426.419L172.08 394.117L181.647 425.834Z" fill="#CCE1FF"/>
<path d="M205.75 393.389C205.755 396.911 205.212 400.413 204.139 403.768H204.004L172.116 394.124L205.094 386.543C205.543 388.797 205.763 391.09 205.75 393.389Z" fill="#CCE1FF"/>
<path d="M172.087 394.117L140.199 403.761H139.95C138.174 398.186 137.857 392.247 139.03 386.514L172.087 394.117Z" fill="#CCE1FF"/>
<path d="M172.037 397.086C174.081 397.086 175.737 395.428 175.737 393.381C175.737 391.335 174.081 389.676 172.037 389.676C169.994 389.676 168.337 391.335 168.337 393.381C168.337 395.428 169.994 397.086 172.037 397.086Z" fill="#45495F"/>
<path d="M549.689 435.449C572.868 435.449 591.658 416.634 591.658 393.424C591.658 370.214 572.868 351.399 549.689 351.399C526.511 351.399 507.721 370.214 507.721 393.424C507.721 416.634 526.511 435.449 549.689 435.449Z" fill="#45495F"/>
<path d="M583.359 393.389C583.374 402.06 580.063 410.407 574.108 416.704C568.154 423 560.012 426.766 551.364 427.224C542.716 427.681 534.223 424.795 527.639 419.162C521.055 413.528 516.884 405.577 515.987 396.952C515.089 388.327 517.535 379.686 522.818 372.815C528.101 365.944 535.817 361.367 544.374 360.03C552.93 358.693 561.673 360.697 568.795 365.63C575.918 370.563 580.876 378.047 582.646 386.536C583.116 388.79 583.355 391.086 583.359 393.389Z" fill="#CCE1FF"/>
<path opacity="0.5" d="M549.647 422.428C565.628 422.428 578.583 409.424 578.583 393.381C578.583 377.339 565.628 364.334 549.647 364.334C533.665 364.334 520.71 377.339 520.71 393.381C520.71 409.424 533.665 422.428 549.647 422.428Z" fill="#06060A"/>
<path d="M559.321 360.958V362.186L549.69 394.117L541.962 360.43C547.696 359.091 553.679 359.273 559.321 360.958Z" fill="#CCE1FF"/>
<path d="M559.256 425.834C553.74 427.47 547.898 427.671 542.282 426.419L549.689 394.117L559.256 425.834Z" fill="#CCE1FF"/>
<path d="M583.36 393.389C583.365 396.911 582.821 400.413 581.749 403.768H581.585L549.689 394.117L582.668 386.536C583.129 388.791 583.361 391.087 583.36 393.389Z" fill="#CCE1FF"/>
<path d="M549.689 394.117L517.801 403.761H517.552C515.776 398.186 515.459 392.247 516.632 386.514L549.689 394.117Z" fill="#CCE1FF"/>
<path d="M549.646 397.086C551.69 397.086 553.346 395.428 553.346 393.381C553.346 391.335 551.69 389.676 549.646 389.676C547.603 389.676 545.946 391.335 545.946 393.381C545.946 395.428 547.603 397.086 549.646 397.086Z" fill="#45495F"/>
<path opacity="0.2" d="M304.009 299.123L293.465 320.403H281.81L289.602 306.975C293.9 304.477 298.741 301.814 304.009 299.123Z" fill="white"/>
<path opacity="0.2" d="M332.939 286.352L322.438 320.382H306.939L319.558 291.727C323.864 289.857 328.341 288.058 332.939 286.352Z" fill="white"/>
<path opacity="0.2" d="M442.112 276.836L419.235 317.462L418.209 317.533C415.357 317.719 412.712 317.84 410.467 317.883L431.048 276.172L433.814 276.322C436.409 276.465 439.204 276.636 442.112 276.836Z" fill="white"/>
<path opacity="0.2" d="M269.006 320.261L255.946 410.343L365.027 407.951L382.935 320.653L269.006 320.261Z" stroke="white" stroke-miterlimit="10"/>
<path opacity="0.5" d="M471.669 414.726C470.094 415.44 466.38 417.324 465.845 420.287H222.304L217.313 420.244C218.374 418.462 219.326 416.616 220.165 414.719L471.669 414.726Z" fill="#06060A"/>
<path opacity="0.1" d="M369.646 376.82H369.396C369.396 376.82 377.595 374.607 369.646 376.82Z" fill="black"/>
<path opacity="0.1" d="M437.423 418.16V419.373C437.328 418.974 437.328 418.559 437.423 418.16Z" fill="black"/>
<path opacity="0.05" d="M380.297 412.87C380.297 412.87 392.908 415.012 396.059 421.829C399.21 428.646 418.159 447.093 418.159 447.093" fill="black"/>
</g>
<defs>
<clipPath id="clip0">
<rect width="706" height="519" fill="white"/>
</clipPath>
</defs>
</svg>
