<svg width="24" height="24" viewBox="0 0 24 24" fill="none" xmlns="http://www.w3.org/2000/svg">
<g clip-path="url(#clip0)">
<path fill-rule="evenodd" clip-rule="evenodd" d="M0 21.8077V2.19227C0 0.983123 0.981959 0 2.19191 0H21.8081C23.017 0 24 0.983123 24 2.19227V21.8077C24 23.0179 23.017 24 21.8081 24H2.19191C0.981959 24 0 23.0179 0 21.8077ZM23.25 21.8077V2.19227C23.25 1.39818 22.6021 0.750095 21.8081 0.750095H2.19191C1.39694 0.750095 0.749969 1.39818 0.749969 2.19227V21.8077C0.749969 22.6028 1.39694 23.2499 2.19191 23.2499H21.8081C22.6021 23.2499 23.25 22.6028 23.25 21.8077Z" fill="black"/>
<path d="M23.25 21.8077V2.19227C23.25 1.39818 22.6021 0.750095 21.8081 0.750095H2.19191C1.39694 0.750095 0.749969 1.39818 0.749969 2.19227V21.8077C0.749969 22.6028 1.39694 23.2499 2.19191 23.2499H21.8081C22.6021 23.2499 23.25 22.6028 23.25 21.8077Z" fill="black"/>
<path fill-rule="evenodd" clip-rule="evenodd" d="M11.1767 23.5118V14.2026H9.48875C9.28176 14.2026 9.11377 14.0346 9.11377 13.8276V11.0402C9.11377 10.7932 9.30076 10.6702 9.48875 10.6692L11.1777 10.6682V9.168C11.1777 8.3769 11.1867 6.95473 11.9277 6.04761C12.6756 5.1235 13.7116 4.50342 15.4225 4.50342C18.0584 4.50342 19.1943 4.85546 19.2353 4.86846C19.4143 4.92547 19.5243 5.1075 19.4913 5.29252L18.9754 8.14687C18.9354 8.3629 18.7204 8.49992 18.5084 8.44291C18.5114 8.44291 17.6914 8.22288 16.9424 8.22288C16.4865 8.22288 15.7945 8.3209 15.7945 8.86496V10.6652H18.7114C18.9304 10.6652 19.1024 10.8532 19.0844 11.0712L18.8564 13.8586C18.8404 14.0536 18.6784 14.2026 18.4834 14.2026H15.7945V23.5118C15.7945 23.7188 15.6255 23.8868 15.4195 23.8868H11.5517C11.3447 23.8868 11.1767 23.7188 11.1767 23.5118ZM15.0445 23.1367V13.8276C15.0445 13.6216 15.2125 13.4525 15.4195 13.4525H18.1374L18.3044 11.4153H15.4195C15.2125 11.4153 15.0445 11.2473 15.0445 11.0402V8.86496C15.0445 8.3419 15.3095 7.96985 15.6935 7.74982C16.0545 7.5438 16.5095 7.47279 16.9424 7.47279C17.3704 7.47279 17.8094 7.5348 18.1424 7.59581L18.3054 7.62781L18.6884 5.50854L18.5684 5.48554C18.0434 5.38753 17.0274 5.25351 15.4225 5.25351C13.9386 5.25351 13.1166 5.77058 12.5086 6.52067C11.9657 7.18575 11.9277 8.3139 11.9277 9.168V11.0432C11.9277 11.2503 11.7587 11.4183 11.5527 11.4183H9.86374V13.4525H11.5517C11.7577 13.4525 11.9267 13.6216 11.9267 13.8276V23.1367H15.0445Z" fill="white"/>
<path d="M15.0445 23.1367V13.8276C15.0445 13.6216 15.2125 13.4525 15.4195 13.4525H18.1374L18.3044 11.4153H15.4195C15.2125 11.4153 15.0445 11.2473 15.0445 11.0402V8.86496C15.0445 8.3419 15.3095 7.96985 15.6935 7.74982C16.0545 7.5438 16.5095 7.47279 16.9424 7.47279C17.3704 7.47279 17.8094 7.5348 18.1424 7.59581L18.3054 7.62781L18.6884 5.50854L18.5684 5.48554C18.0434 5.38753 17.0274 5.25351 15.4225 5.25351C13.9386 5.25351 13.1166 5.77058 12.5086 6.52067C11.9657 7.18575 11.9277 8.3139 11.9277 9.168V11.0432C11.9277 11.2503 11.7587 11.4183 11.5527 11.4183H9.86374V13.4525H11.5517C11.7577 13.4525 11.9267 13.6216 11.9267 13.8276V23.1367H15.0445Z" fill="white"/>
</g>
<defs>
<clipPath id="clip0">
<rect width="24" height="24" fill="white"/>
</clipPath>
</defs>
</svg>
