<svg width="24" height="24" viewBox="0 0 24 24" fill="none" xmlns="http://www.w3.org/2000/svg">
<path fill-rule="evenodd" clip-rule="evenodd" d="M0 21.8077V2.19227C0 0.983123 0.981959 0 2.19191 0H21.8081C23.017 0 24 0.983123 24 2.19227V21.8077C24 23.0179 23.017 24 21.8081 24H2.19191C0.981959 24 0 23.0179 0 21.8077Z" fill="black"/>
<path fill-rule="evenodd" clip-rule="evenodd" d="M3.75098 17.3613V6.63697C3.75098 5.04177 5.04592 3.74561 6.64186 3.74561H17.3684C18.9633 3.74561 20.2593 5.04177 20.2593 6.63697V17.3613C20.2593 18.9575 18.9633 20.2527 17.3684 20.2527H6.64186C5.04592 20.2527 3.75098 18.9575 3.75098 17.3613ZM16.4984 5.99689C16.9044 5.99689 17.2424 6.33293 17.2424 6.75198C17.2424 7.17204 16.9044 7.50707 16.4984 7.50707C16.0915 7.50707 15.7545 7.17204 15.7545 6.75198C15.7545 6.33293 16.0915 5.99689 16.4984 5.99689ZM19.5093 17.3613V6.63697C19.5093 5.45682 18.5484 4.4957 17.3684 4.4957C17.3684 4.4957 6.90858 4.49139 6.64186 4.4957C6.37513 4.5 5.99888 4.59471 5.99888 4.59471C5.13092 4.86774 4.50095 5.68085 4.50095 6.63697V9.00126V9.75036V17.3613C4.50095 18.5425 5.4609 19.5026 6.64186 19.5026H17.3684C18.5484 19.5026 19.5093 18.5425 19.5093 17.3613ZM16.4984 5.24679C15.6705 5.24679 15.0045 5.92588 15.0045 6.75198C15.0045 7.57909 15.6705 8.25717 16.4984 8.25717C17.3254 8.25717 17.9924 7.57909 17.9924 6.75198C17.9924 5.92588 17.3254 5.24679 16.4984 5.24679Z" fill="white"/>
<path fill-rule="evenodd" clip-rule="evenodd" d="M19.5093 17.3613V6.63697C19.5093 5.45682 18.5484 4.4957 17.3684 4.4957C17.3684 4.4957 6.90858 4.49139 6.64186 4.4957C6.37513 4.5 5.99888 4.59471 5.99888 4.59471C5.13092 4.86774 4.50095 5.68085 4.50095 6.63697V9.00126V9.75036V17.3613C4.50095 18.5425 5.4609 19.5026 6.64186 19.5026H17.3684C18.5484 19.5026 19.5093 18.5425 19.5093 17.3613ZM16.4984 5.24679C15.6705 5.24679 15.0045 5.92588 15.0045 6.75198C15.0045 7.57909 15.6705 8.25717 16.4984 8.25717C17.3254 8.25717 17.9924 7.57909 17.9924 6.75198C17.9924 5.92588 17.3254 5.24679 16.4984 5.24679ZM11.9973 8.625C9.92638 8.625 8.24444 10.3062 8.24444 12.3765C8.24444 14.4477 9.92638 16.1279 11.9973 16.1279C14.0672 16.1279 15.7501 14.4477 15.7501 12.3765C15.7501 10.3062 14.0672 8.625 11.9973 8.625Z" fill="white"/>
<path fill-rule="evenodd" clip-rule="evenodd" d="M15.0002 12.3765C15.0002 10.7213 13.6542 9.37509 11.9973 9.37509C10.3394 9.37509 8.99441 10.7213 8.99441 12.3765C8.99441 14.0327 10.3394 15.3778 11.9973 15.3778C13.6542 15.3778 15.0002 14.0327 15.0002 12.3765ZM11.9973 10.1272C10.7583 10.1272 9.75338 11.1343 9.75338 12.3725C9.75338 13.6116 10.7583 14.6177 11.9973 14.6177C13.2352 14.6177 14.2412 13.6116 14.2412 12.3725C14.2412 11.1343 13.2352 10.1272 11.9973 10.1272Z" fill="white"/>
</svg>
