<svg width="24" height="24" viewBox="0 0 24 24" fill="none" xmlns="http://www.w3.org/2000/svg">
<path fill-rule="evenodd" clip-rule="evenodd" d="M0 21.8077V2.19227C0 0.983123 0.981959 0 2.19191 0H21.8081C23.017 0 24 0.983123 24 2.19227V21.8077C24 23.0179 23.017 24 21.8081 24H2.19191C0.981959 24 0 23.0179 0 21.8077ZM23.25 21.8077V2.19227C23.25 1.39818 22.6021 0.750095 21.8081 0.750095H2.19191C1.39694 0.750095 0.749969 1.39818 0.749969 2.19227V21.8077C0.749969 22.6028 1.39694 23.2499 2.19191 23.2499H21.8081C22.6021 23.2499 23.25 22.6028 23.25 21.8077Z" fill="black"/>
<path d="M23.25 21.8077V2.19227C23.25 1.39818 22.6021 0.750095 21.8081 0.750095H2.19191C1.39694 0.750095 0.749969 1.39818 0.749969 2.19227V21.8077C0.749969 22.6028 1.39694 23.2499 2.19191 23.2499H21.8081C22.6021 23.2499 23.25 22.6028 23.25 21.8077Z" fill="black"/>
<path fill-rule="evenodd" clip-rule="evenodd" d="M7.33157 20.5757L7.21258 20.4497C6.6776 19.8966 6.6776 19.0005 7.21458 18.4454C7.87555 17.7593 8.82851 16.7712 9.81647 15.7461L10.0065 15.549L9.61448 15.473C8.91151 15.321 8.13254 15.066 7.49257 14.6389C6.95159 14.2789 6.48161 13.9448 6.22562 13.5548C5.92963 13.1047 5.93763 12.6247 6.19662 12.0816C6.54461 11.3585 7.51357 10.8405 8.63152 11.7526C9.75647 12.6717 11.6164 12.6807 11.6274 12.6807C11.6374 12.6807 13.4973 12.6717 14.6213 11.7526C15.7402 10.8385 16.7082 11.3545 17.0552 12.0826C17.3152 12.6247 17.3222 13.1047 17.0272 13.5548C16.7702 13.9448 16.3002 14.2789 15.7602 14.6389C15.1232 15.063 14.3513 15.316 13.6543 15.469L13.2643 15.546L13.4573 15.7461L16.0612 18.4454C16.5992 19.0005 16.5992 19.8966 16.0612 20.4517L15.9412 20.5767C15.3982 21.1377 14.5143 21.1367 13.9703 20.5767C13.4723 20.0606 12.8123 19.3765 12.0974 18.6344L11.6374 18.1564L9.30449 20.5767C9.0355 20.8537 8.68052 20.9967 8.31753 20.9977C7.95855 20.9967 7.60156 20.8547 7.33157 20.5757ZM8.76551 20.0556L11.3684 17.3553C11.5154 17.2023 11.7604 17.2023 11.9074 17.3553C12.8953 18.3794 13.8473 19.3675 14.5093 20.0556C14.7573 20.3116 15.1552 20.3106 15.4022 20.0556L15.5222 19.9306C15.7782 19.6656 15.7782 19.2315 15.5222 18.9665L12.9183 16.2671L12.2154 15.538C12.0004 15.314 12.1364 14.938 12.4464 14.905C13.2743 14.816 14.4843 14.5869 15.3452 14.0139C15.9132 13.6358 16.2422 13.3828 16.4002 13.1427C16.5182 12.9627 16.5532 12.7707 16.3782 12.4057C16.2292 12.0926 15.8152 11.7456 15.0962 12.3336C13.7403 13.4408 11.6164 13.4308 11.6274 13.4308C11.6374 13.4308 9.51348 13.4408 8.15654 12.3336C7.44057 11.7496 7.02259 12.0946 6.87359 12.4067C6.6986 12.7707 6.7346 12.9627 6.85259 13.1427C7.00959 13.3828 7.33957 13.6358 7.90755 14.0139C8.77451 14.5909 9.99846 14.82 10.8254 14.906C11.1354 14.938 11.2734 15.314 11.0574 15.538L10.3574 16.2671C9.36749 17.2923 8.41453 18.2804 7.75356 18.9665C7.49857 19.2315 7.49857 19.6656 7.75556 19.9326L7.87255 20.0566C7.99655 20.1836 8.15954 20.2476 8.31853 20.2476C8.47953 20.2476 8.64052 20.1846 8.76551 20.0556Z" fill="white"/>
<path d="M8.76551 20.0556L11.3684 17.3553C11.5154 17.2023 11.7604 17.2023 11.9074 17.3553C12.8953 18.3794 13.8473 19.3675 14.5093 20.0556C14.7573 20.3116 15.1552 20.3106 15.4022 20.0556L15.5222 19.9306C15.7782 19.6656 15.7782 19.2315 15.5222 18.9665L12.9183 16.2671L12.2154 15.538C12.0004 15.314 12.1364 14.938 12.4464 14.905C13.2743 14.816 14.4843 14.5869 15.3452 14.0139C15.9132 13.6358 16.2422 13.3828 16.4002 13.1427C16.5182 12.9627 16.5532 12.7707 16.3782 12.4057C16.2292 12.0926 15.8152 11.7456 15.0962 12.3336C13.7403 13.4408 11.6164 13.4308 11.6274 13.4308C11.6374 13.4308 9.51348 13.4408 8.15654 12.3336C7.44057 11.7496 7.02259 12.0946 6.87359 12.4067C6.6986 12.7707 6.7346 12.9627 6.85259 13.1427C7.00959 13.3828 7.33957 13.6358 7.90755 14.0139C8.77451 14.5909 9.99846 14.82 10.8254 14.906C11.1354 14.938 11.2734 15.314 11.0574 15.538L10.3574 16.2671C9.36749 17.2923 8.41453 18.2804 7.75356 18.9665C7.49857 19.2315 7.49857 19.6656 7.75556 19.9326L7.87255 20.0566C7.99655 20.1836 8.15954 20.2476 8.31853 20.2476C8.47953 20.2476 8.64052 20.1846 8.76551 20.0556Z" fill="white"/>
<path fill-rule="evenodd" clip-rule="evenodd" d="M6.75684 7.1261C6.75684 4.43376 8.93775 2.25049 11.6286 2.25049C14.3175 2.25049 16.5004 4.43376 16.5004 7.1261C16.5004 9.81743 14.3175 11.9987 11.6286 11.9987C8.93775 11.9987 6.75684 9.81743 6.75684 7.1261ZM15.7505 7.1261C15.7505 4.84681 13.9025 3.00058 11.6286 3.00058C9.35273 3.00058 7.5068 4.84681 7.5068 7.1261C7.5068 9.40238 9.35273 11.2486 11.6286 11.2486C13.9025 11.2486 15.7505 9.40238 15.7505 7.1261ZM9.04074 7.1261C9.04074 5.69492 10.1997 4.53377 11.6286 4.53377C13.0576 4.53377 14.2165 5.69492 14.2165 7.1261C14.2165 8.55628 13.0566 9.71242 11.6286 9.71242C10.2007 9.71242 9.04074 8.55628 9.04074 7.1261ZM13.4666 7.1261C13.4666 6.10797 12.6426 5.28387 11.6286 5.28387C10.6147 5.28387 9.79071 6.10797 9.79071 7.1261C9.79071 8.14122 10.6137 8.96233 11.6286 8.96233C12.6436 8.96233 13.4666 8.14122 13.4666 7.1261Z" fill="white"/>
<path fill-rule="evenodd" clip-rule="evenodd" d="M15.7505 7.1261C15.7505 4.84681 13.9025 3.00058 11.6286 3.00058C9.35273 3.00058 7.5068 4.84681 7.5068 7.1261C7.5068 9.40238 9.35273 11.2486 11.6286 11.2486C13.9025 11.2486 15.7505 9.40238 15.7505 7.1261ZM11.6286 4.53377C10.1997 4.53377 9.04074 5.69492 9.04074 7.1261C9.04074 8.55628 10.2007 9.71242 11.6286 9.71242C13.0566 9.71242 14.2165 8.55628 14.2165 7.1261C14.2165 5.69492 13.0576 4.53377 11.6286 4.53377Z" fill="white"/>
</svg>
