<svg width="24" height="24" viewBox="0 0 24 24" fill="none" xmlns="http://www.w3.org/2000/svg">
<g clip-path="url(#clip0)">
<path fill-rule="evenodd" clip-rule="evenodd" d="M0 21.8077V2.19227C0 0.983123 0.981959 0 2.19191 0H21.8081C23.017 0 24 0.983123 24 2.19227V21.8077C24 23.0179 23.017 24 21.8081 24H2.19191C0.981959 24 0 23.0179 0 21.8077ZM23.25 21.8077V2.19227C23.25 1.39818 22.6021 0.750095 21.8081 0.750095H2.19191C1.39694 0.750095 0.749969 1.39818 0.749969 2.19227V21.8077C0.749969 22.6028 1.39694 23.2499 2.19191 23.2499H21.8081C22.6021 23.2499 23.25 22.6028 23.25 21.8077Z" fill="black"/>
<path d="M23.25 21.8077V2.19227C23.25 1.39818 22.6021 0.750095 21.8081 0.750095H2.19191C1.39694 0.750095 0.749969 1.39818 0.749969 2.19227V21.8077C0.749969 22.6028 1.39694 23.2499 2.19191 23.2499H21.8081C22.6021 23.2499 23.25 22.6028 23.25 21.8077Z" fill="black"/>
<path fill-rule="evenodd" clip-rule="evenodd" d="M15.8442 17.4671L14.3523 15.5809C14.2693 15.4799 14.2023 15.4219 14.1553 15.3889L14.1033 15.3589L14.0813 15.4099L13.7413 16.9281L13.6843 17.2421C13.5883 17.5661 13.3783 17.8972 12.9504 17.9802L12.6874 17.9972H10.9624C7.89457 17.9972 5.12468 13.6276 3.18576 8.18397L3.17177 8.13296C3.10577 7.80592 3.07277 7.44287 3.23276 7.15084C3.41676 6.8138 3.76874 6.70578 4.13773 6.69478L6.78862 6.71278C6.95261 6.71378 7.0976 6.8208 7.1446 6.97782C7.74058 8.93706 8.47255 10.1342 9.36751 11.4994L9.39251 11.5434C9.4895 11.7474 9.69249 11.6894 9.79749 11.5274L9.86149 11.3384L9.86249 8.26298C9.86249 7.81092 9.6565 7.74691 9.15652 7.6759C8.92753 7.6429 8.78253 7.41187 8.85253 7.19184C9.09352 6.42775 9.88449 6.0367 10.9814 6.0367L11.9924 6.0127C12.8104 6.0127 13.5513 6.36374 13.5513 7.40987V11.4554L13.6233 11.4954C13.7573 11.5424 14.0203 11.5524 14.2333 11.2183C15.1523 9.92218 16.2112 8.37399 16.3602 7.56489C16.3662 7.53188 16.3762 7.50088 16.3902 7.47088C16.5772 7.07783 17.0882 6.80079 17.2942 6.73779C17.3232 6.72878 17.3812 6.71178 17.4492 6.71178L20.2101 6.71378L20.3811 6.71578C20.446 6.72378 20.51 6.73779 20.572 6.75979C20.738 6.8198 20.855 6.92881 20.932 7.05283C21.083 7.29886 21.062 7.57489 21.077 7.6849C21.083 7.72191 21.083 7.75991 21.077 7.79792C20.818 9.41812 18.9551 11.2343 18.1721 12.4125C17.9711 12.6895 17.9682 12.8966 18.1551 13.1236L20.754 16.377C21.054 16.806 21.038 17.2751 20.719 17.6101C20.511 17.8292 20.2091 17.9512 19.8901 17.9882L19.5901 17.9972H16.8282L16.8772 17.9942C16.5142 18.0422 16.2322 17.8922 16.0202 17.6792L15.8442 17.4671ZM16.8282 17.2471L19.6081 17.2481C19.9011 17.2651 20.0981 17.1751 20.1761 17.0931C20.2031 17.0651 20.2401 17.0201 20.2041 16.9231L20.1441 16.814L17.5722 13.5966C17.1312 13.0596 17.2032 12.4725 17.5552 11.9854C18.3001 10.8643 19.9001 9.2621 20.2771 7.93994L20.3281 7.71391L20.3151 7.57089L20.2951 7.46188H20.2181H17.4982L17.4092 7.50388C17.3252 7.55089 17.2212 7.6239 17.1472 7.69391L17.0722 7.78692L16.9792 8.11996C16.6592 9.01507 15.8582 10.2102 15.1753 11.1843L14.8463 11.6484L14.6383 11.9044C14.0863 12.4415 13.2703 12.3435 12.9374 11.8954C12.8584 11.7894 12.8014 11.6534 12.8014 11.4974V7.40987C12.8014 6.92581 12.5814 6.76279 12.0014 6.76279L10.9904 6.78679C10.5035 6.78679 10.1715 6.8698 9.94948 6.98982L9.82649 7.06983L9.91349 7.10083C10.2835 7.26585 10.6125 7.58789 10.6125 8.26398L10.6095 11.3874C10.5375 12.3625 9.34551 12.7915 8.81253 12.0344L8.74053 11.9104C7.94457 10.6973 7.2496 9.57514 6.66862 7.93394L6.51363 7.46088L4.14472 7.44587C3.90074 7.45188 3.88674 7.51788 3.89074 7.51088C3.87474 7.53889 3.85574 7.6149 3.87374 7.78392L3.90273 7.96094L4.27272 8.95906C6.20964 13.9737 8.66154 17.2471 10.9624 17.2471L12.7034 17.2481C12.9394 17.2601 12.9904 16.9971 13.0024 16.819L13.0114 16.765L13.3573 15.2158L13.3673 15.1778C13.4153 15.0348 13.4893 14.8958 13.6033 14.7878C13.7583 14.6408 13.9593 14.5748 14.1713 14.6028C14.4673 14.6418 14.7263 14.8528 14.9373 15.1098L16.4442 17.0181C16.5992 17.2401 16.7012 17.2611 16.7782 17.2511L16.8282 17.2471Z" fill="white"/>
<path d="M16.8282 17.2471L19.6081 17.2481C19.9011 17.2651 20.0981 17.1751 20.1761 17.0931C20.2031 17.0651 20.2401 17.0201 20.2041 16.9231L20.1441 16.814L17.5722 13.5966C17.1312 13.0596 17.2032 12.4725 17.5552 11.9854C18.3001 10.8643 19.9001 9.2621 20.2771 7.93994L20.3281 7.71391L20.3151 7.57089L20.2951 7.46188H20.2181H17.4982L17.4092 7.50388C17.3252 7.55089 17.2212 7.6239 17.1472 7.69391L17.0722 7.78692L16.9792 8.11996C16.6592 9.01507 15.8582 10.2102 15.1753 11.1843L14.8463 11.6484L14.6383 11.9044C14.0863 12.4415 13.2703 12.3435 12.9374 11.8954C12.8584 11.7894 12.8014 11.6534 12.8014 11.4974V7.40987C12.8014 6.92581 12.5814 6.76279 12.0014 6.76279L10.9904 6.78679C10.5035 6.78679 10.1715 6.8698 9.94948 6.98982L9.82649 7.06983L9.91349 7.10083C10.2835 7.26585 10.6125 7.58789 10.6125 8.26398L10.6095 11.3874C10.5375 12.3625 9.34551 12.7915 8.81253 12.0344L8.74053 11.9104C7.94457 10.6973 7.2496 9.57514 6.66862 7.93394L6.51363 7.46088L4.14472 7.44587C3.90074 7.45188 3.88674 7.51788 3.89074 7.51088C3.87474 7.53889 3.85574 7.6149 3.87374 7.78392L3.90273 7.96094L4.27272 8.95906C6.20964 13.9737 8.66154 17.2471 10.9624 17.2471L12.7034 17.2481C12.9394 17.2601 12.9904 16.9971 13.0024 16.819L13.0114 16.765L13.3573 15.2158L13.3673 15.1778C13.4153 15.0348 13.4893 14.8958 13.6033 14.7878C13.7583 14.6408 13.9593 14.5748 14.1713 14.6028C14.4673 14.6418 14.7263 14.8528 14.9373 15.1098L16.4442 17.0181C16.5992 17.2401 16.7012 17.2611 16.7782 17.2511L16.8282 17.2471Z" fill="white"/>
</g>
<defs>
<clipPath id="clip0">
<rect width="24" height="24" fill="white"/>
</clipPath>
</defs>
</svg>
